<?xml version="1.0" encoding="UTF-8" standalone="no"?>
<!-- Created with Inkscape (http://www.inkscape.org/) -->

<svg
   xmlns:dc="http://purl.org/dc/elements/1.1/"
   xmlns:cc="http://creativecommons.org/ns#"
   xmlns:rdf="http://www.w3.org/1999/02/22-rdf-syntax-ns#"
   xmlns:svg="http://www.w3.org/2000/svg"
   xmlns="http://www.w3.org/2000/svg"
   xmlns:xlink="http://www.w3.org/1999/xlink"
   xmlns:sodipodi="http://sodipodi.sourceforge.net/DTD/sodipodi-0.dtd"
   xmlns:inkscape="http://www.inkscape.org/namespaces/inkscape"
   width="1024"
   height="768"
   id="svg2"
   version="1.1"
   inkscape:version="0.48.4 r9939"
   sodipodi:docname="victory.svg"
   inkscape:export-filename="C:\tp\talk\game\assets\real\levels\victory.png"
   inkscape:export-xdpi="90"
   inkscape:export-ydpi="90">
  <defs
     id="defs4">
    <linearGradient
       id="linearGradient3759">
      <stop
         style="stop-color:#68dcf7;stop-opacity:1;"
         offset="0"
         id="stop3761" />
      <stop
         style="stop-color:#6347f4;stop-opacity:1;"
         offset="1"
         id="stop3763" />
    </linearGradient>
    <linearGradient
       inkscape:collect="always"
       xlink:href="#linearGradient3759"
       id="linearGradient3765"
       x1="276.15289"
       y1="518.10394"
       x2="751.58649"
       y2="518.10394"
       gradientUnits="userSpaceOnUse"
       gradientTransform="translate(127.27922,-15.152288)" />
    <linearGradient
       inkscape:collect="always"
       xlink:href="#linearGradient3759"
       id="linearGradient2993"
       gradientUnits="userSpaceOnUse"
       x1="276.15289"
       y1="518.10394"
       x2="751.58649"
       y2="518.10394"
       gradientTransform="translate(75.76144,112.12693)" />
    <filter
       inkscape:collect="always"
       id="filter3766"
       x="-0.021112313"
       width="1.0422246"
       y="-0.12210265"
       height="1.2442053">
      <feGaussianBlur
         inkscape:collect="always"
         stdDeviation="3.0316992"
         id="feGaussianBlur3768" />
    </filter>
    <linearGradient
       inkscape:collect="always"
       xlink:href="#linearGradient3759"
       id="linearGradient2996"
       gradientUnits="userSpaceOnUse"
       gradientTransform="matrix(2.9258757,0,0,2.9258757,-657.38635,-868.92143)"
       x1="276.15289"
       y1="518.10394"
       x2="751.58649"
       y2="518.10394" />
    <filter
       inkscape:collect="always"
       id="filter3770"
       x="-0.031392685"
       width="1.0627854"
       y="-0.10191485"
       height="1.2038297">
      <feGaussianBlur
         inkscape:collect="always"
         stdDeviation="9.2339955"
         id="feGaussianBlur3772" />
    </filter>
    <filter
       id="filter9070"
       inkscape:collect="always">
      <feGaussianBlur
         id="feGaussianBlur9072"
         stdDeviation="21.065011"
         inkscape:collect="always" />
    </filter>
    <filter
       id="filter9050"
       inkscape:collect="always">
      <feGaussianBlur
         id="feGaussianBlur9052"
         stdDeviation="16.378558"
         inkscape:collect="always" />
    </filter>
    <radialGradient
       r="1057.4502"
       fy="379.41949"
       fx="846.79523"
       cy="379.41949"
       cx="846.79523"
       gradientTransform="matrix(1,0,0,0.9712462,0,10.909754)"
       gradientUnits="userSpaceOnUse"
       id="radialGradient8999"
       xlink:href="#linearGradient8987"
       inkscape:collect="always" />
    <inkscape:perspective
       id="perspective8331"
       inkscape:persp3d-origin="372.04724 : 350.78739 : 1"
       inkscape:vp_z="744.09448 : 526.18109 : 1"
       inkscape:vp_y="0 : 1000 : 0"
       inkscape:vp_x="0 : 526.18109 : 1"
       sodipodi:type="inkscape:persp3d" />
    <linearGradient
       id="linearGradient8861">
      <stop
         id="stop8863"
         offset="0"
         style="stop-color:#ffffff;stop-opacity:1;" />
      <stop
         id="stop8865"
         offset="1"
         style="stop-color:#ffcaca;stop-opacity:1;" />
    </linearGradient>
    <linearGradient
       id="linearGradient8987">
      <stop
         id="stop8989"
         offset="0"
         style="stop-color:#ffe4e4;stop-opacity:1;" />
      <stop
         id="stop8991"
         offset="1"
         style="stop-color:#ffd0d0;stop-opacity:1;" />
    </linearGradient>
    <linearGradient
       id="linearGradient9002">
      <stop
         id="stop9004"
         offset="0"
         style="stop-color:#ffffff;stop-opacity:1;" />
      <stop
         id="stop9006"
         offset="1"
         style="stop-color:#ff2a2a;stop-opacity:1;" />
    </linearGradient>
    <linearGradient
       id="linearGradient9014">
      <stop
         id="stop9016"
         offset="0"
         style="stop-color:#ffd0d0;stop-opacity:1;" />
      <stop
         id="stop9018"
         offset="1"
         style="stop-color:#ffaaaa;stop-opacity:1;" />
    </linearGradient>
    <linearGradient
       id="linearGradient9026">
      <stop
         id="stop9028"
         offset="0"
         style="stop-color:#ffc4c4;stop-opacity:1;" />
      <stop
         id="stop9030"
         offset="1"
         style="stop-color:#ffaaaa;stop-opacity:1;" />
    </linearGradient>
    <linearGradient
       id="linearGradient9074">
      <stop
         id="stop9076"
         offset="0"
         style="stop-color:#ffd5d5;stop-opacity:1;" />
      <stop
         id="stop9078"
         offset="1"
         style="stop-color:#ffd0e9;stop-opacity:1;" />
    </linearGradient>
    <radialGradient
       inkscape:collect="always"
       xlink:href="#linearGradient8987"
       id="radialGradient4132"
       gradientUnits="userSpaceOnUse"
       gradientTransform="matrix(0.187773,0.00588218,-0.00571304,0.1823737,746.95765,268.24234)"
       cx="846.79523"
       cy="379.41949"
       fx="846.79523"
       fy="379.41949"
       r="1057.4502" />
    <radialGradient
       inkscape:collect="always"
       xlink:href="#linearGradient9002"
       id="radialGradient4134"
       gradientUnits="userSpaceOnUse"
       gradientTransform="matrix(0.187773,0.00588218,-0.00571304,0.1823737,746.95765,268.24234)"
       cx="846.79523"
       cy="379.41949"
       fx="846.79523"
       fy="379.41949"
       r="1057.4502" />
    <radialGradient
       inkscape:collect="always"
       xlink:href="#linearGradient9014"
       id="radialGradient4136"
       gradientUnits="userSpaceOnUse"
       gradientTransform="matrix(0.187773,0.00588218,-0.00595502,0.1900982,747.05265,265.20963)"
       cx="848.12866"
       cy="423.22391"
       fx="848.12866"
       fy="423.22391"
       r="687.92401" />
    <radialGradient
       inkscape:collect="always"
       xlink:href="#linearGradient9026"
       id="radialGradient4138"
       gradientUnits="userSpaceOnUse"
       gradientTransform="matrix(0.187773,0.00588218,-0.00566877,0.1809603,746.93844,268.85552)"
       cx="831.55994"
       cy="390.70572"
       fx="831.55994"
       fy="390.70572"
       r="519.58142" />
    <radialGradient
       inkscape:collect="always"
       xlink:href="#linearGradient9074"
       id="radialGradient4140"
       gradientUnits="userSpaceOnUse"
       cx="-647.82611"
       cy="78.449142"
       fx="-647.82611"
       fy="78.449142"
       r="113.04348" />
    <linearGradient
       inkscape:collect="always"
       xlink:href="#linearGradient8861"
       id="linearGradient4142"
       gradientUnits="userSpaceOnUse"
       gradientTransform="translate(-1.4285019,0)"
       x1="854.28571"
       y1="426.64789"
       x2="854.28571"
       y2="160.93361" />
    <linearGradient
       inkscape:collect="always"
       xlink:href="#linearGradient8861"
       id="linearGradient4144"
       gradientUnits="userSpaceOnUse"
       gradientTransform="translate(-1.4285019,0)"
       x1="854.28571"
       y1="426.64789"
       x2="854.28571"
       y2="160.93361" />
    <linearGradient
       inkscape:collect="always"
       xlink:href="#linearGradient8861"
       id="linearGradient4146"
       gradientUnits="userSpaceOnUse"
       gradientTransform="translate(-1.4285019,0)"
       x1="854.28571"
       y1="426.64789"
       x2="854.28571"
       y2="160.93361" />
    <linearGradient
       inkscape:collect="always"
       xlink:href="#linearGradient8861"
       id="linearGradient4148"
       gradientUnits="userSpaceOnUse"
       gradientTransform="translate(-1.4285019,0)"
       x1="854.28571"
       y1="426.64789"
       x2="854.28571"
       y2="160.93361" />
    <linearGradient
       inkscape:collect="always"
       xlink:href="#linearGradient8861"
       id="linearGradient4150"
       gradientUnits="userSpaceOnUse"
       gradientTransform="translate(-1.4285019,0)"
       x1="854.28571"
       y1="426.64789"
       x2="854.28571"
       y2="160.93361" />
    <linearGradient
       inkscape:collect="always"
       xlink:href="#linearGradient8861"
       id="linearGradient4152"
       gradientUnits="userSpaceOnUse"
       gradientTransform="translate(-1.4285019,0)"
       x1="854.28571"
       y1="426.64789"
       x2="854.28571"
       y2="160.93361" />
    <linearGradient
       inkscape:collect="always"
       xlink:href="#linearGradient8861"
       id="linearGradient4154"
       gradientUnits="userSpaceOnUse"
       gradientTransform="translate(-1.4285019,0)"
       x1="854.28571"
       y1="426.64789"
       x2="854.28571"
       y2="160.93361" />
    <linearGradient
       inkscape:collect="always"
       xlink:href="#linearGradient8861"
       id="linearGradient4156"
       gradientUnits="userSpaceOnUse"
       gradientTransform="translate(-1.4285019,0)"
       x1="854.28571"
       y1="426.64789"
       x2="854.28571"
       y2="160.93361" />
    <linearGradient
       inkscape:collect="always"
       xlink:href="#linearGradient8861"
       id="linearGradient4158"
       gradientUnits="userSpaceOnUse"
       gradientTransform="translate(-1.4285019,0)"
       x1="854.28571"
       y1="426.64789"
       x2="854.28571"
       y2="160.93361" />
    <inkscape:perspective
       id="perspective3237"
       inkscape:persp3d-origin="382.5 : 330 : 1"
       inkscape:vp_z="765 : 495 : 1"
       inkscape:vp_y="0 : 1000 : 0"
       inkscape:vp_x="0 : 495 : 1"
       sodipodi:type="inkscape:persp3d" />
  </defs>
  <sodipodi:namedview
     id="base"
     pagecolor="#ffffff"
     bordercolor="#666666"
     borderopacity="1.0"
     inkscape:pageopacity="0.0"
     inkscape:pageshadow="2"
     inkscape:zoom="0.49497475"
     inkscape:cx="133.92653"
     inkscape:cy="332.33157"
     inkscape:document-units="px"
     inkscape:current-layer="layer1"
     showgrid="false"
     inkscape:window-width="1920"
     inkscape:window-height="1003"
     inkscape:window-x="1911"
     inkscape:window-y="-9"
     inkscape:window-maximized="1">
    <inkscape:grid
       type="xygrid"
       id="grid2985"
       empspacing="5"
       visible="true"
       enabled="true"
       snapvisiblegridlinesonly="true" />
  </sodipodi:namedview>
  <metadata
     id="metadata7">
    <rdf:RDF>
      <cc:Work
         rdf:about="">
        <dc:format>image/svg+xml</dc:format>
        <dc:type
           rdf:resource="http://purl.org/dc/dcmitype/StillImage" />
        <dc:title></dc:title>
      </cc:Work>
    </rdf:RDF>
  </metadata>
  <g
     inkscape:label="Layer 1"
     inkscape:groupmode="layer"
     id="layer1"
     transform="translate(0,-284.36218)">
    <text
       xml:space="preserve"
       style="font-size:117.03502655px;font-style:normal;font-weight:normal;line-height:125%;letter-spacing:0px;word-spacing:0px;fill:url(#linearGradient2996);fill-opacity:1;stroke:none;font-family:Sans"
       x="137.66478"
       y="699.85785"
       id="text2987"
       sodipodi:linespacing="125%"><tspan
         sodipodi:role="line"
         id="tspan2989"
         x="137.66478"
         y="699.85785"
         style="font-size:210.66305542px;font-style:normal;font-variant:normal;font-weight:normal;font-stretch:normal;fill:url(#linearGradient2996);fill-opacity:1;stroke:none;font-family:Comic Sans MS;-inkscape-font-specification:Comic Sans MS">Victory</tspan></text>
    <text
       sodipodi:linespacing="125%"
       id="text3766"
       y="699.85785"
       x="137.66478"
       style="font-size:117.03502655000001000px;font-style:normal;font-weight:normal;line-height:125%;letter-spacing:0px;word-spacing:0px;fill:url(#linearGradient2996);fill-opacity:1;stroke:#d9edfa;font-family:Sans;filter:url(#filter3770);stroke-opacity:1"
       xml:space="preserve"><tspan
         style="font-size:210.66305542000001000px;font-style:normal;font-variant:normal;font-weight:normal;font-stretch:normal;fill:url(#linearGradient2996);fill-opacity:1;stroke:#d9edfa;font-family:Comic Sans MS;-inkscape-font-specification:Comic Sans MS;stroke-opacity:1"
         y="699.85785"
         x="137.66478"
         id="tspan3768"
         sodipodi:role="line">Victory</tspan></text>
    <g
       inkscape:label="Layer 1"
       id="g4058"
       transform="matrix(0.58722318,-0.2379955,0.2379955,0.58722318,75.832358,922.57132)">
      <path
         inkscape:connector-curvature="0"
         style="fill:url(#radialGradient4132);fill-opacity:1;stroke:none"
         d="m 909.6226,149.56165 c -17.80087,-0.55763 -33.65346,43.79119 -35.38282,98.99643 -0.10031,3.20214 -0.14785,6.37043 -0.15071,9.49886 -1.26957,-1.77396 -2.56845,-3.55097 -3.89772,-5.32616 -32.26846,-43.09302 -69.7349,-69.62335 -83.63021,-59.21841 -13.8953,10.40493 1.0182,53.82551 33.28666,96.91852 4.08299,5.45265 8.25058,10.63929 12.44173,15.5203 -7.14067,-1.74271 -14.62797,-3.27668 -22.3709,-4.55979 -54.48922,-9.02958 -101.07294,-2.0963 -103.98452,15.47369 -2.91158,17.57 38.94324,39.15386 93.43247,48.18343 6.47638,1.07322 12.83994,1.92096 19.03294,2.55215 -4.64176,2.66284 -9.33208,5.51678 -14.03028,8.56481 -45.21217,29.3321 -74.22854,64.97168 -64.77043,79.5503 9.4581,14.57861 53.82693,2.60225 99.03908,-26.72983 0.93809,-0.60859 1.87063,-1.21937 2.79456,-1.83315 -18.67434,48.62216 -21.11537,92.92439 -5.43204,98.9655 15.71267,6.0524 43.69811,-28.57904 62.46821,-77.30819 1.47012,-3.81657 2.83391,-7.61254 4.10327,-11.36034 1.74832,5.62036 3.71278,11.34865 5.89486,17.13605 19.48579,51.68087 48.82313,88.52775 65.4876,82.24457 16.66442,-6.28318 14.37601,-53.32993 -5.10978,-105.01081 -1.47551,-3.91338 -3.00766,-7.73713 -4.58636,-11.46809 0.59012,0.36384 1.18491,0.72807 1.78082,1.08955 43.08627,26.13634 84.89147,36.07032 93.31907,22.17718 8.1427,-13.42331 -17.8414,-44.20274 -58.4694,-69.84274 1.612,-0.10936 3.2341,-0.22864 4.8631,-0.36454 55.0411,-4.59188 98.5067,-22.7247 97.0261,-40.47265 -1.4806,-17.74795 -47.348,-28.42173 -102.3891,-23.82986 -4.18214,0.34889 -8.29966,0.77676 -12.33351,1.27588 0.5483,-0.50699 1.09803,-1.01426 1.64549,-1.52847 36.72082,-34.49007 57.49762,-72.09204 46.37632,-83.93263 -11.1213,-11.84059 -49.94995,6.5419 -86.67079,41.03197 -4.54431,4.26825 -8.84783,8.58 -12.87355,12.88883 1.13505,-8.95094 1.89902,-18.43359 2.20701,-28.2654 1.72936,-55.20524 -11.3163,-100.45933 -29.11717,-101.01696 z"
         id="path4060" />
      <path
         inkscape:connector-curvature="0"
         style="fill:#501616;fill-opacity:1;stroke:none;filter:url(#filter9070)"
         d="M 1084.7215,-280.91376 C 1023.853,-302.94451 918.99828,-167.63264 850.67509,21.136615 846.71205,32.086054 842.9695,42.97815 839.42639,53.782947 837.0438,46.22042 834.56342,38.614294 831.97593,30.980099 769.16436,-154.341 669.68903,-288.31217 609.93244,-268.05864 c -59.7566,20.25353 -57.27274,187.105675 5.53884,372.42677 7.94767,23.44908 16.48802,46.07472 25.45499,67.67103 C 618.22495,157.9538 594.09037,144.19812 568.78934,131.02043 390.73858,38.285174 221.9713,9.6266278 192.06893,67.038908 162.16654,124.45118 282.38931,246.28956 460.44007,339.02481 c 21.1624,11.02213 42.18971,21.13786 62.8724,30.31291 -19.04378,3.95712 -38.47104,8.51967 -58.14475,13.74384 -189.32606,50.27369 -329.82267,140.62984 -313.61196,201.67782 16.21069,61.04803 183.0216,69.78227 372.34763,19.50859 3.92818,-1.04308 7.83978,-2.1 11.72493,-3.17696 -119.42959,146.88849 -177.89764,297.18644 -130.53787,335.76981 47.44834,38.65565 183.24477,-49.38196 303.12601,-196.53192 9.38936,-11.52512 18.38815,-23.0991 27.00628,-34.61335 -0.30751,21.39168 0.01,43.40041 1.01207,65.85905 8.95109,200.55364 68.6906,360.9854 133.35903,358.0991 64.66816,-2.8863 109.89674,-168.00742 100.94564,-368.56107 -0.67779,-15.1863 -1.65246,-30.12701 -2.8928,-44.79962 1.62782,1.92347 3.27127,3.85354 4.92179,5.7754 119.33563,138.95704 252.54423,220.49145 297.35083,182.01177 43.2914,-37.17846 -11.7157,-172.86113 -123.1192,-307.32704 5.6928,1.44281 11.4311,2.86261 17.2125,4.2329 195.3415,46.29938 365.9855,32.74436 380.9145,-30.24334 14.9293,-62.98762 -131.4778,-151.66572 -326.8194,-197.96515 -14.8424,-3.5179 -29.5507,-6.69001 -44.0507,-9.52154 2.4669,-1.1323 4.9391,-2.26397 7.4112,-3.42207 165.8158,-77.68349 280.0626,-184.12506 255.0137,-237.59217 -25.0491,-53.467114 -179.9549,-33.812451 -345.7707,43.87105 -20.5201,9.61355 -40.2576,19.64931 -59.0319,29.98878 14.0304,-29.64165 27.3795,-61.5394 39.5476,-95.15839 68.3232,-188.769245 74.363,-359.84624 13.4946,-381.87697 z"
         id="path4062"
         transform="matrix(0.187773,0.00588218,-0.00588218,0.187773,747.02182,266.19379)" />
      <path
         inkscape:connector-curvature="0"
         style="fill:url(#radialGradient4134);fill-opacity:1;stroke:none"
         d="m 909.6226,149.56165 c -17.80087,-0.55763 -33.65346,43.79119 -35.38282,98.99643 -0.10031,3.20214 -0.14785,6.37043 -0.15071,9.49886 -1.26957,-1.77396 -2.56845,-3.55097 -3.89772,-5.32616 -32.26846,-43.09302 -69.7349,-69.62335 -83.63021,-59.21841 -13.8953,10.40493 1.0182,53.82551 33.28666,96.91852 4.08299,5.45265 8.25058,10.63929 12.44173,15.5203 -7.14067,-1.74271 -14.62797,-3.27668 -22.3709,-4.55979 -54.48922,-9.02958 -101.07294,-2.0963 -103.98452,15.47369 -2.91158,17.57 38.94324,39.15386 93.43247,48.18343 6.47638,1.07322 12.83994,1.92096 19.03294,2.55215 -4.64176,2.66284 -9.33208,5.51678 -14.03028,8.56481 -45.21217,29.3321 -74.22854,64.97168 -64.77043,79.5503 9.4581,14.57861 53.82693,2.60225 99.03908,-26.72983 0.93809,-0.60859 1.87063,-1.21937 2.79456,-1.83315 -18.67434,48.62216 -21.11537,92.92439 -5.43204,98.9655 15.71267,6.0524 43.69811,-28.57904 62.46821,-77.30819 1.47012,-3.81657 2.83391,-7.61254 4.10327,-11.36034 1.74832,5.62036 3.71278,11.34865 5.89486,17.13605 19.48579,51.68087 48.8231,88.52775 65.4876,82.24457 16.66442,-6.28318 14.37606,-53.32992 -5.10978,-105.01081 -1.47551,-3.91338 -3.00767,-7.73713 -4.58636,-11.46809 0.59012,0.36384 1.18491,0.72807 1.78082,1.08955 43.08627,26.13634 84.89147,36.07032 93.31907,22.17718 8.1427,-13.42331 -17.8414,-44.20274 -58.4694,-69.84274 1.612,-0.10936 3.2341,-0.22864 4.8631,-0.36454 55.0411,-4.59188 98.5067,-22.7247 97.0261,-40.47265 -1.4806,-17.74795 -47.348,-28.42173 -102.3891,-23.82986 -4.18214,0.34889 -8.29966,0.77676 -12.33351,1.27588 0.5483,-0.50699 1.09803,-1.01426 1.64549,-1.52847 36.72082,-34.49007 57.49762,-72.09204 46.37632,-83.93263 -11.1213,-11.84059 -49.94997,6.5419 -86.67079,41.03197 -4.54431,4.26825 -8.84783,8.58 -12.87355,12.88883 1.13505,-8.95094 1.89902,-18.43359 2.20701,-28.2654 1.72938,-55.20524 -11.3163,-100.45933 -29.11717,-101.01696 z m -0.17317,5.71553 c 17.27336,0.5411 29.93164,44.45437 28.25356,98.02369 -0.29887,9.54046 -1.03828,18.74189 -2.13969,27.42758 3.90643,-4.18114 8.08192,-8.36549 12.49156,-12.50725 35.63266,-33.46803 73.30934,-51.30411 84.10104,-39.81441 10.7918,11.48974 -9.3676,47.97617 -45.00023,81.4442 -0.53123,0.49897 -1.06506,0.99104 -1.59709,1.483 3.91432,-0.48433 7.91004,-0.90178 11.96829,-1.24034 53.41003,-4.45579 97.92013,5.902 99.35693,23.12402 1.4368,17.22202 -40.7416,34.82056 -94.1516,39.27637 -1.5808,0.13187 -3.15757,0.2452 -4.7218,0.35135 39.4241,24.88019 64.6382,54.74825 56.7368,67.77379 -8.1778,13.48144 -48.7459,3.84098 -90.55547,-21.52086 -0.57825,-0.35077 -1.15042,-0.70532 -1.72307,-1.05837 1.53193,3.62039 3.01837,7.33162 4.45016,11.12903 18.90839,50.1494 21.12531,95.80179 4.95468,101.89878 -16.17065,6.09699 -44.63512,-29.65547 -63.5435,-79.80485 -2.11741,-5.61589 -4.02617,-11.17758 -5.72269,-16.63138 -1.23173,3.63673 -2.55457,7.32001 -3.98113,11.02349 -18.21387,47.28515 -45.36983,80.89563 -60.61687,75.02257 -15.21858,-5.86206 -12.85124,-48.85242 5.26971,-96.03374 -0.89655,0.59558 -1.80028,1.1865 -2.71057,1.77704 -43.87237,28.46289 -86.92888,40.08139 -96.10671,25.93477 -9.17785,-14.1466 18.97978,-48.72753 62.85217,-77.19043 4.55898,-2.95771 9.11291,-5.72951 13.61714,-8.31344 -6.00951,-0.6125 -12.18702,-1.43441 -18.47148,-2.47583 -52.87453,-8.762 -93.48914,-29.70229 -90.66383,-46.75164 2.82529,-17.04932 48.02966,-23.78005 100.90418,-15.01804 7.51349,1.24508 14.78226,2.73645 21.71134,4.42752 -4.06695,-4.73638 -8.1123,-9.77133 -12.0743,-15.0624 -31.31224,-41.81601 -45.78532,-83.94821 -32.30179,-94.04482 13.48353,-10.09659 49.84146,15.64495 81.1537,57.46096 1.28989,1.72259 2.54732,3.44835 3.77928,5.16975 0.003,-3.03571 0.0504,-6.10977 0.14777,-9.21702 1.67811,-53.56933 17.06012,-96.60419 34.33351,-96.06309 z"
         id="path4064" />
      <path
         inkscape:connector-curvature="0"
         id="path4066"
         d="m 951.66498,221.68641 c -11.1392,-4.43092 -31.33277,20.00774 -45.07418,54.55334 -0.79707,2.0038 -1.55298,3.99826 -2.27148,5.97772 -0.39717,-1.41366 -0.81218,-2.83597 -1.24687,-4.26409 -10.55203,-34.66774 -28.18839,-60.04303 -39.36697,-56.64054 -11.17857,3.4025 -11.68631,34.30175 -1.13427,68.96949 1.33516,4.38658 2.78481,8.62418 4.3194,12.67371 -4.1204,-2.73886 -8.50804,-5.42504 -13.11493,-8.01097 -32.42002,-18.19803 -63.49319,-24.48142 -69.36112,-14.02761 -5.86795,10.4538 15.67918,33.70359 48.09921,51.9016 3.85331,2.16295 7.68689,4.15733 11.46211,5.9756 -3.54802,0.62204 -7.17051,1.35393 -10.84248,2.20686 -35.33635,8.20801 -61.86666,24.11855 -59.22,35.51272 2.64666,11.39419 33.47325,13.97817 68.80961,5.77018 0.73316,-0.17031 1.46334,-0.34326 2.18875,-0.52009 -22.95854,26.49701 -34.65267,53.9786 -26.10996,61.39513 8.5587,7.43043 34.20554,-8.07821 57.24919,-34.62099 1.80482,-2.07889 3.53764,-4.1691 5.19965,-6.25044 -0.18096,3.95787 -0.24986,8.0336 -0.19455,12.19658 0.49396,37.17501 10.62166,67.21785 22.60872,67.05855 11.98703,-0.15927 21.31644,-30.46145 20.82248,-67.63646 -0.0374,-2.81497 -0.13119,-5.58619 -0.27569,-8.30932 0.29016,0.36546 0.58318,0.73227 0.87755,1.09757 21.28365,26.41337 45.46821,42.27805 53.98517,35.41516 8.22899,-6.63083 -1.16626,-32.06508 -21.0077,-57.60112 1.04539,0.30008 2.09934,0.59615 3.16154,0.88333 35.88988,9.70286 67.55524,8.18326 70.68384,-3.38938 3.1287,-11.57265 -23.4575,-28.8362 -59.34737,-38.53905 -2.72699,-0.73725 -5.43116,-1.4097 -8.09872,-2.01791 0.46319,-0.19528 0.92735,-0.39042 1.39167,-0.59046 31.14347,-13.41796 52.90812,-32.45817 48.58152,-42.50035 -4.3267,-10.04219 -33.11415,-7.30227 -64.25763,6.1157 -3.85408,1.66051 -7.56573,3.40371 -11.10088,5.20872 2.76894,-5.40541 5.42487,-11.23238 7.87217,-17.38479 13.74143,-34.54562 15.85141,-66.17749 4.71222,-70.60839 z"
         style="fill:url(#radialGradient4136);fill-opacity:1;stroke:none" />
      <path
         inkscape:connector-curvature="0"
         style="fill:#782121;fill-opacity:1;stroke:none;filter:url(#filter9050)"
         d="m 798.18715,-145.09419 c -49.81418,3.30273 -81.9365,131.356302 -71.69394,285.84311 0.5941,8.96091 1.32616,17.81301 2.17203,26.54162 -4.02609,-4.6026 -8.13476,-9.20569 -12.32779,-13.79543 C 614.5516,42.078769 502.78459,-21.71137 466.85848,11.109372 430.93242,43.930119 484.38974,160.99706 586.1756,272.4134 c 12.87918,14.09775 25.92178,27.4303 38.94669,39.90371 -20.39713,-2.91299 -41.70432,-5.14905 -63.65617,-6.61546 -154.48172,-10.31944 -282.55141,21.73753 -285.8789,71.55001 -3.3275,49.81245 119.33243,98.6049 273.81414,108.92435 18.36107,1.22653 36.34587,1.85478 53.79579,1.92548 -12.22314,8.69583 -24.52952,17.93806 -36.80492,27.72391 -118.12994,94.17223 -189.35438,201.52103 -158.98865,239.61191 30.36576,38.09091 150.87978,-7.43104 269.00971,-101.60325 2.45098,-1.95388 4.88597,-3.91244 7.29608,-5.87693 -38.82829,140.74575 -33.54694,265.00898 11.85611,277.58227 45.48801,12.59692 114.11145,-91.658 153.17768,-232.72835 3.05974,-11.04895 5.82851,-22.01139 8.34697,-32.81366 6.41155,15.20281 13.45549,30.64782 21.12276,46.19826 68.46793,138.86405 160.37161,233.65466 205.14831,211.57715 44.7763,-22.07732 25.5517,-152.70664 -42.9163,-291.5707 -5.1844,-10.51504 -10.5026,-20.76465 -15.9251,-30.7426 1.7457,0.85402 3.5043,1.70783 5.2655,2.55368 127.3379,61.15714 246.6797,77.46157 266.3998,36.40155 19.0534,-39.67159 -61.8392,-118.45 -182.1836,-178.89334 4.4675,-0.74506 8.9602,-1.52052 13.4677,-2.34427 152.3038,-27.83308 268.6179,-90.28424 259.6432,-139.39444 -8.9749,-49.11013 -139.8515,-66.36985 -292.1552,-38.53678 -11.5723,2.1148 -22.9428,4.43231 -34.0606,6.92572 1.3912,-1.56405 2.7865,-3.12938 4.1736,-4.71328 93.0325,-106.24469 140.734,-216.819481 106.4756,-246.817751 -34.2585,-29.99823678 -137.5679,31.883879 -230.6004,138.128581 -11.5131,13.14808 -22.34243,26.35177 -32.39759,39.47155 0.72356,-25.2816 0.26685,-51.94539 -1.55725,-79.45888 -10.24253,-154.486794 -58.98938,-277.17871 -108.80341,-273.87603 z"
         id="path4068"
         transform="matrix(0.187773,0.00588218,-0.00588218,0.187773,747.02182,266.19379)" />
      <path
         inkscape:connector-curvature="0"
         id="path4070"
         d="m 897.78043,244.52536 c -9.29123,0.32427 -16.01685,23.97177 -15.01116,52.78634 0.0583,1.67136 0.14298,3.32329 0.24952,4.95289 -0.72255,-0.88016 -1.46045,-1.76091 -2.21415,-2.63965 -18.2959,-21.33156 -38.7273,-33.8566 -45.60566,-27.9571 -6.87833,5.89949 2.38917,28.00102 20.68507,49.33259 2.31503,2.69913 4.66491,5.25679 7.01654,7.65442 -3.77957,-0.66112 -7.73247,-1.20155 -11.80985,-1.60251 -28.69372,-2.82151 -52.71843,2.39856 -53.62822,11.65081 -0.9098,9.25227 21.63656,19.04928 50.33029,21.87079 3.41042,0.33537 6.75429,0.55715 10.00186,0.67207 -2.32582,1.54729 -4.67031,3.19581 -7.01221,4.94568 -22.53678,16.83964 -36.41981,36.40532 -30.98989,43.67228 5.42992,7.26698 28.1268,-0.50341 50.66357,-17.34302 0.4676,-0.34939 0.93226,-0.69975 1.39231,-1.05134 -8.04782,25.97081 -7.78935,49.13088 0.58827,51.7359 8.39331,2.60991 21.77416,-16.39506 29.86816,-42.42491 0.63394,-2.03872 1.21322,-4.06302 1.74496,-6.05898 1.10474,2.8671 2.32579,5.78296 3.66224,8.72211 11.93435,26.24618 28.48781,44.42555 36.95088,40.57731 8.463,-3.84819 5.64636,-28.27451 -6.28797,-54.52069 -0.90368,-1.98741 -1.8338,-3.92618 -2.78494,-5.81502 0.31995,0.16913 0.64231,0.33832 0.96521,0.50603 23.34498,12.12573 45.46316,15.85636 49.37309,8.32878 3.77779,-7.27302 -10.81956,-22.40784 -32.86699,-34.35994 0.83589,-0.11262 1.67663,-0.23077 2.52045,-0.35781 28.51078,-4.29257 50.52459,-15.23849 49.14049,-24.43177 -1.3841,-9.19326 -25.64374,-13.16895 -54.15455,-8.87639 -2.16629,0.32616 -4.2962,0.69122 -6.38012,1.09049 0.26806,-0.283 0.5369,-0.56622 0.80433,-0.85294 17.93576,-19.23303 27.45921,-39.53633 21.25758,-45.31972 -6.20167,-5.78336 -25.7916,5.13247 -43.72736,24.3655 -2.21963,2.38015 -4.31229,4.77463 -6.26036,7.15799 0.28208,-4.70147 0.35254,-9.66711 0.17344,-14.79887 -1.00568,-28.81456 -9.3636,-51.93561 -18.65483,-51.61132 z"
         style="fill:#ffd5d5;fill-opacity:1;stroke:none" />
      <path
         inkscape:connector-curvature="0"
         style="fill:url(#radialGradient4138);fill-opacity:1;stroke:none"
         d="m 897.95744,250.25352 c -8.75862,0.3057 -15.09868,22.5976 -14.15065,49.76035 0.055,1.57556 0.13477,3.13277 0.23521,4.66897 -0.68111,-0.82971 -1.37674,-1.65996 -2.08722,-2.48832 -17.24708,-20.10874 -36.50724,-31.91577 -42.99128,-26.35447 -6.48403,5.56131 2.2522,26.39586 19.49929,46.5046 2.18229,2.5444 4.39749,4.95542 6.61429,7.21563 -3.5629,-0.62325 -7.28919,-1.1327 -11.13283,-1.51065 -27.04885,-2.65978 -49.69632,2.26105 -50.55396,10.98292 -0.85765,8.72187 20.39624,17.95726 47.44508,20.61703 3.21492,0.31613 6.3671,0.52522 9.42849,0.63354 -2.19247,1.45859 -4.40257,3.0126 -6.61021,4.66218 -21.24486,15.87427 -34.33203,34.31836 -29.21339,41.16874 5.11864,6.85038 26.51441,-0.47455 47.75926,-16.34883 0.44079,-0.32936 0.87881,-0.65964 1.31248,-0.99107 -7.58647,24.48202 -7.34281,46.31443 0.55455,48.77012 7.91216,2.4603 20.52595,-15.45522 28.15597,-39.99288 0.59759,-1.92185 1.14365,-3.83012 1.64493,-5.71166 1.0414,2.70275 2.19246,5.45147 3.4523,8.22212 11.2502,24.7416 26.85473,41.87883 34.83265,38.25121 7.97787,-3.62762 5.32267,-26.65367 -5.92753,-51.39528 -0.85188,-1.87348 -1.72867,-3.70112 -2.62528,-5.48166 0.3016,0.15943 0.60549,0.31891 0.90987,0.477 22.00674,11.43063 42.857,14.94739 46.54278,7.85133 3.5612,-6.85611 -10.19933,-21.12329 -30.98287,-32.39022 0.78797,-0.10618 1.5805,-0.21754 2.37595,-0.33732 26.87639,-4.04648 47.62828,-14.36493 46.32349,-23.0312 -1.30477,-8.66625 -24.17369,-12.41403 -51.05011,-8.36755 -2.04213,0.30747 -4.04993,0.6516 -6.01439,1.02799 0.25272,-0.26678 0.50615,-0.53377 0.75822,-0.80407 16.90758,-18.13048 25.88513,-37.26988 20.03899,-42.72171 -5.84618,-5.45184 -24.3131,4.83823 -41.22067,22.96871 -2.09238,2.24371 -4.06509,4.50092 -5.90149,6.74766 0.26591,-4.43196 0.33233,-9.11293 0.16351,-13.95052 -0.94803,-27.16275 -8.82684,-48.95838 -17.58543,-48.65269 z"
         id="path4072" />
      <path
         sodipodi:type="arc"
         style="fill:url(#radialGradient4140);fill-opacity:1;stroke:none"
         id="path4074"
         sodipodi:cx="-647.82611"
         sodipodi:cy="78.449142"
         sodipodi:rx="113.04348"
         sodipodi:ry="113.04348"
         d="m -534.78263,78.449142 c 0,62.432188 -50.61129,113.043478 -113.04348,113.043478 -62.43219,0 -113.04348,-50.61129 -113.04348,-113.043478 0,-62.43219 50.61129,-113.043479 113.04348,-113.043479 62.43219,0 113.04348,50.611289 113.04348,113.043479 z"
         transform="matrix(0.187773,0.00588218,-0.00588218,0.187773,1026.3724,340.89318)" />
      <g
         id="g4076"
         transform="matrix(0.187773,0.00588218,-0.00588218,0.187773,747.02182,266.19379)">
        <g
           inkscape:transform-center-x="41.421297"
           transform="matrix(0.9103882,-0.2165114,0.2165114,0.9103882,-15.948075,222.88603)"
           inkscape:transform-center-y="-142.03338"
           id="g4078">
          <rect
             style="fill:url(#linearGradient4142);fill-opacity:1;stroke:none"
             id="rect4080"
             width="17.142857"
             height="265.71429"
             x="844.28577"
             y="160.93361"
             ry="8.5714283" />
          <path
             sodipodi:type="arc"
             style="fill:#ff8080;fill-opacity:1;stroke:none"
             id="path4082"
             sodipodi:cx="1124.2858"
             sodipodi:cy="242.36218"
             sodipodi:rx="61.42857"
             sodipodi:ry="61.42857"
             d="m 1185.7143,242.36218 c 0,33.92606 -27.5025,61.42857 -61.4285,61.42857 -33.9261,0 -61.4286,-27.50251 -61.4286,-61.42857 0,-33.92606 27.5025,-61.42857 61.4286,-61.42857 33.926,0 61.4285,27.50251 61.4285,61.42857 z"
             transform="matrix(0.4883721,0,0,0.4883721,303.78742,26.856403)" />
        </g>
        <g
           inkscape:transform-center-x="65.319143"
           transform="matrix(-0.5795793,-0.3985252,0.3985252,-0.5795793,1177.5721,1012.8396)"
           id="g4084"
           inkscape:transform-center-y="91.571866">
          <rect
             ry="8.5714283"
             y="160.93361"
             x="844.28577"
             height="265.71429"
             width="17.142857"
             id="rect4086"
             style="fill:url(#linearGradient4144);fill-opacity:1;stroke:none" />
          <path
             transform="matrix(0.4883721,0,0,0.4883721,303.78742,26.856403)"
             d="m 1185.7143,242.36218 c 0,33.92606 -27.5025,61.42857 -61.4285,61.42857 -33.9261,0 -61.4286,-27.50251 -61.4286,-61.42857 0,-33.92606 27.5025,-61.42857 61.4286,-61.42857 33.926,0 61.4285,27.50251 61.4285,61.42857 z"
             sodipodi:ry="61.42857"
             sodipodi:rx="61.42857"
             sodipodi:cy="242.36218"
             sodipodi:cx="1124.2858"
             id="path4088"
             style="fill:#ff8080;fill-opacity:1;stroke:none"
             sodipodi:type="arc" />
        </g>
        <g
           inkscape:transform-center-y="56.816043"
           id="g4090"
           transform="matrix(-0.3227048,0.8781257,-0.8781257,-0.3227048,1502.5815,-184.80597)"
           inkscape:transform-center-x="-137.35199">
          <rect
             style="fill:url(#linearGradient4146);fill-opacity:1;stroke:none"
             id="rect4092"
             width="17.142857"
             height="265.71429"
             x="844.28577"
             y="160.93361"
             ry="8.5714283" />
          <path
             sodipodi:type="arc"
             style="fill:#ff8080;fill-opacity:1;stroke:none"
             id="path4094"
             sodipodi:cx="1124.2858"
             sodipodi:cy="242.36218"
             sodipodi:rx="61.42857"
             sodipodi:ry="61.42857"
             d="m 1185.7143,242.36218 c 0,33.92606 -27.5025,61.42857 -61.4285,61.42857 -33.9261,0 -61.4286,-27.50251 -61.4286,-61.42857 0,-33.92606 27.5025,-61.42857 61.4286,-61.42857 33.926,0 61.4285,27.50251 61.4285,61.42857 z"
             transform="matrix(0.4883721,0,0,0.4883721,303.78742,26.856403)" />
        </g>
        <g
           inkscape:transform-center-x="-95.874226"
           transform="matrix(0.3450292,0.6094654,-0.6094654,0.3450292,818.95326,-238.51575)"
           id="g4096"
           inkscape:transform-center-y="-57.531079">
          <rect
             ry="8.5714283"
             y="160.93361"
             x="844.28577"
             height="265.71429"
             width="17.142857"
             id="rect4098"
             style="fill:url(#linearGradient4148);fill-opacity:1;stroke:none" />
          <path
             transform="matrix(0.4883721,0,0,0.4883721,303.78742,26.856403)"
             d="m 1185.7143,242.36218 c 0,33.92606 -27.5025,61.42857 -61.4285,61.42857 -33.9261,0 -61.4286,-27.50251 -61.4286,-61.42857 0,-33.92606 27.5025,-61.42857 61.4286,-61.42857 33.926,0 61.4285,27.50251 61.4285,61.42857 z"
             sodipodi:ry="61.42857"
             sodipodi:rx="61.42857"
             sodipodi:cy="242.36218"
             sodipodi:cx="1124.2858"
             id="path4100"
             style="fill:#ff8080;fill-opacity:1;stroke:none"
             sodipodi:type="arc" />
        </g>
        <g
           inkscape:transform-center-y="-139.15119"
           id="g4102"
           transform="matrix(0.8857865,0.4640929,-0.4640929,0.8857865,295.41212,-347.07606)"
           inkscape:transform-center-x="-78.005605">
          <rect
             style="fill:url(#linearGradient4150);fill-opacity:1;stroke:none"
             id="rect4104"
             width="17.142857"
             height="265.71429"
             x="844.28577"
             y="160.93361"
             ry="8.5714283" />
          <path
             sodipodi:type="arc"
             style="fill:#ff8080;fill-opacity:1;stroke:none"
             id="path4106"
             sodipodi:cx="1124.2858"
             sodipodi:cy="242.36218"
             sodipodi:rx="61.42857"
             sodipodi:ry="61.42857"
             d="m 1185.7143,242.36218 c 0,33.92606 -27.5025,61.42857 -61.4285,61.42857 -33.9261,0 -61.4286,-27.50251 -61.4286,-61.42857 0,-33.92606 27.5025,-61.42857 61.4286,-61.42857 33.926,0 61.4285,27.50251 61.4285,61.42857 z"
             transform="matrix(0.4883721,0,0,0.4883721,303.78742,26.856403)" />
        </g>
        <g
           inkscape:transform-center-x="96.389889"
           transform="matrix(0.4538796,-0.6086807,0.6086807,0.4538796,206.90337,752.41674)"
           id="g4108"
           inkscape:transform-center-y="-73.943808">
          <rect
             ry="8.5714283"
             y="160.93361"
             x="844.28577"
             height="265.71429"
             width="17.142857"
             id="rect4110"
             style="fill:url(#linearGradient4152);fill-opacity:1;stroke:none" />
          <path
             transform="matrix(0.4883721,0,0,0.4883721,303.78742,26.856403)"
             d="m 1185.7143,242.36218 c 0,33.92606 -27.5025,61.42857 -61.4285,61.42857 -33.9261,0 -61.4286,-27.50251 -61.4286,-61.42857 0,-33.92606 27.5025,-61.42857 61.4286,-61.42857 33.926,0 61.4285,27.50251 61.4285,61.42857 z"
             sodipodi:ry="61.42857"
             sodipodi:rx="61.42857"
             sodipodi:cy="242.36218"
             sodipodi:cx="1124.2858"
             id="path4112"
             style="fill:#ff8080;fill-opacity:1;stroke:none"
             sodipodi:type="arc" />
        </g>
        <g
           inkscape:transform-center-y="3.8848532"
           id="g4114"
           transform="matrix(-0.01380462,-0.7938782,0.7938782,-0.01380462,526.28576,1110.9427)"
           inkscape:transform-center-x="123.61958">
          <rect
             style="fill:url(#linearGradient4154);fill-opacity:1;stroke:none"
             id="rect4116"
             width="17.142857"
             height="265.71429"
             x="844.28577"
             y="160.93361"
             ry="8.5714283" />
          <path
             sodipodi:type="arc"
             style="fill:#ff8080;fill-opacity:1;stroke:none"
             id="path4118"
             sodipodi:cx="1124.2858"
             sodipodi:cy="242.36218"
             sodipodi:rx="61.42857"
             sodipodi:ry="61.42857"
             d="m 1185.7143,242.36218 c 0,33.92606 -27.5025,61.42857 -61.4285,61.42857 -33.9261,0 -61.4286,-27.50251 -61.4286,-61.42857 0,-33.92606 27.5025,-61.42857 61.4286,-61.42857 33.926,0 61.4285,27.50251 61.4285,61.42857 z"
             transform="matrix(0.4883721,0,0,0.4883721,303.78742,26.856403)" />
        </g>
        <g
           inkscape:transform-center-x="20.50556"
           transform="matrix(-0.8597214,-0.07763013,0.07763013,-0.8597214,1553.7205,859.40862)"
           id="g4120"
           inkscape:transform-center-y="133.90881">
          <rect
             ry="8.5714283"
             y="160.93361"
             x="844.28577"
             height="265.71429"
             width="17.142857"
             id="rect4122"
             style="fill:url(#linearGradient4156);fill-opacity:1;stroke:none" />
          <path
             transform="matrix(0.4883721,0,0,0.4883721,303.78742,26.856403)"
             d="m 1185.7143,242.36218 c 0,33.92606 -27.5025,61.42857 -61.4285,61.42857 -33.9261,0 -61.4286,-27.50251 -61.4286,-61.42857 0,-33.92606 27.5025,-61.42857 61.4286,-61.42857 33.926,0 61.4285,27.50251 61.4285,61.42857 z"
             sodipodi:ry="61.42857"
             sodipodi:rx="61.42857"
             sodipodi:cy="242.36218"
             sodipodi:cx="1124.2858"
             id="path4124"
             style="fill:#ff8080;fill-opacity:1;stroke:none"
             sodipodi:type="arc" />
        </g>
        <g
           inkscape:transform-center-y="88.070313"
           id="g4126"
           transform="matrix(-0.5505593,0.5375089,-0.5375089,-0.5505593,1550.7315,203.07194)"
           inkscape:transform-center-x="-86.178152">
          <rect
             style="fill:url(#linearGradient4158);fill-opacity:1;stroke:none"
             id="rect4128"
             width="17.142857"
             height="265.71429"
             x="844.28577"
             y="160.93361"
             ry="8.5714283" />
          <path
             sodipodi:type="arc"
             style="fill:#ff8080;fill-opacity:1;stroke:none"
             id="path4130"
             sodipodi:cx="1124.2858"
             sodipodi:cy="242.36218"
             sodipodi:rx="61.42857"
             sodipodi:ry="61.42857"
             d="m 1185.7143,242.36218 c 0,33.92606 -27.5025,61.42857 -61.4285,61.42857 -33.9261,0 -61.4286,-27.50251 -61.4286,-61.42857 0,-33.92606 27.5025,-61.42857 61.4286,-61.42857 33.926,0 61.4285,27.50251 61.4285,61.42857 z"
             transform="matrix(0.4883721,0,0,0.4883721,303.78742,26.856403)" />
        </g>
      </g>
    </g>
    <g
       id="layer1-4"
       inkscape:label="Layer 1"
       transform="matrix(0.26505024,0,0,0.26505024,803.93549,782.54561)">
      <path
         d="m 379.23224,438.23766 c -4.94841,59.79143 -42.05517,117.89978 -94.9716,147.13987 -49.64238,26.66646 -120.00253,7.23514 -142.94004,-43.80166 -17.75987,-45.78987 -1.08391,-99.20405 31.3371,-134.61327 24.92277,-27.8949 61.80763,-39.04061 95.67038,-54.30865 -52.54287,6.6743 -108.27882,-3.79934 -149.38088,-36.10199 -25.14684,-18.31117 -49.979362,-45.78136 -48.932006,-78.4038 2.521948,-48.1621 53.322826,-87.4867 102.657776,-79.88441 61.16675,8.8341 108.19649,52.73081 146.56597,97.23434 -13.70848,-12.32703 -26.45597,-31.90206 -32.16517,-49.08634 -17.23876,-71.51723 23.30395,-151.591111 92.59417,-181.144221 14.57609,-7.001648 32.42969,-4.021986 45.10906,6.265571 33.38847,24.998127 55.90046,65.229643 53.90479,106.4967 -5.1638,44.97259 -28.43769,83.87846 -53.24231,121.50249 20.91582,-37.20283 48.73537,-69.00158 91.61946,-86.50739 54.71413,-22.55146 127.39304,-22.15894 169.76651,23.72739 27.0505,26.13173 21.46464,72.8539 -4.93797,97.45611 -29.67672,27.1758 -70.34453,37.06573 -108.05438,47.26366 -32.42792,10.29942 -72.38561,0.61303 -105.15377,0.24392 30.08686,1.46676 68.6009,1.87288 91.3097,17.44796 35.07846,24.27731 70.53194,58.82004 64.84016,104.41026 -6.958,50.83888 -51.52168,106.73021 -109.20247,97.58645 -60.11068,-10.06927 -109.337,-71.6814 -136.39448,-122.92299 z"
         style="fill:#5758f5;fill-opacity:1;stroke:#000000;stroke-width:4.13720798;stroke-miterlimit:4;stroke-opacity:1;stroke-dasharray:none"
         id="path3806"
         sodipodi:nodetypes="ccccccccccccccccccccccc"
         inkscape:connector-curvature="0" />
      <path
         id="path3800"
         d="m 408.59431,258.31834 c 54.72819,26.60889 65.06617,110.11207 19.689,150.2072 -40.46497,40.192 -116.99811,31.37086 -144.51969,-19.51123 -28.5021,-43.71015 -10.54153,-109.63559 37.59131,-131.45838 26.52171,-13.85934 59.82605,-13.08238 87.23938,0.76241 z"
         style="fill:#fdff08;fill-opacity:1;stroke:#000000;stroke-width:3.89824891;stroke-miterlimit:4;stroke-opacity:1;stroke-dasharray:none"
         inkscape:connector-curvature="0" />
      <path
         sodipodi:nodetypes="ccc"
         style="fill:#37dc11;fill-opacity:1;stroke:#000000;stroke-width:5.35293436;stroke-miterlimit:4;stroke-opacity:1;stroke-dasharray:none"
         id="path38"
         d="M 597.44435,630.72409 C 644.1555,828.29746 480.72367,884.29776 359.9435,945.26036 389.70577,822.61833 367.58023,670.79051 597.44435,630.72409 z"
         inkscape:connector-curvature="0" />
      <path
         sodipodi:nodetypes="ccc"
         style="fill:#37dc11;fill-opacity:1;stroke:#000000;stroke-width:5.33783054;stroke-miterlimit:4;stroke-opacity:1;stroke-dasharray:none"
         id="path3789"
         d="M 44.158636,654.33257 C 40.157439,853.71394 233.15572,884.04415 353.59513,944.83474 321.55139,820.17327 242.6233,656.43869 44.158636,654.33257 z"
         inkscape:connector-curvature="0" />
      <path
         sodipodi:nodetypes="ccc"
         d="M 357.18933,948.02026 C 308.51149,652.16548 399.61002,648.38124 378.576,436.06131 426.89148,578.5953 343.28314,624.37694 357.18933,948.02026 z"
         style="fill:#37dc11;fill-opacity:1;stroke:#000000;stroke-width:2.85142946;stroke-miterlimit:4;stroke-opacity:1;stroke-dasharray:none"
         id="path32"
         inkscape:connector-curvature="0" />
    </g>
  </g>
</svg>
